<svg className='w-118 h-20 flex-shrink-0 fill-current text-white' xmlns="http://www.w3.org/2000/svg"
  viewBox="0 0 118 20">
  <path fillRule="evenodd" clipRule="evenodd"
    d="M24.1721 0.125977L11.6891 0.139969C8.02249 0.139969 5.69916 1.97331 4.71915 5.63997L4.43015 6.72597C4.23398 7.40584 4.12773 8.10849 4.11414 8.81598C4.11414 11.0886 5.55748 12.225 8.44415 12.225H12.2372C13.5478 12.225 14.2032 12.619 14.2032 13.407C14.2007 13.5797 14.1731 13.7512 14.1212 13.916C13.8278 15.0433 12.9022 15.607 11.3441 15.607H2.05115L0.910156 19.827H14.0802C17.7468 19.827 20.0748 17.9893 21.0641 14.314L21.3531 13.228C21.5407 12.5515 21.6415 11.8539 21.6532 11.152C21.6532 8.8793 20.2098 7.74297 17.3231 7.74297H13.5292C12.2278 7.74297 11.5725 7.34897 11.5632 6.56097C11.5656 6.38823 11.5933 6.21675 11.6452 6.05197C11.9478 4.92464 12.8782 4.36098 14.4362 4.36098H23.0422L24.1721 0.125977ZM42.8372 14.313C41.1232 18.0796 37.2418 19.963 31.1931 19.963C25.4378 19.963 22.5555 18.2583 22.5461 14.849C22.557 14.1321 22.6647 13.42 22.8661 12.732L23.1962 11.454C24.4882 6.6333 28.5575 4.22298 35.4041 4.22298C41.1688 4.22298 44.0511 5.92297 44.0511 9.32297C44.0511 9.49698 44.0465 9.67097 44.0372 9.84497H35.7612C35.8537 9.51086 35.9044 9.16656 35.9122 8.81998C35.9122 7.95331 35.4495 7.51997 34.5242 7.51997C33.2868 7.51997 32.4618 8.29898 32.0492 9.85698L30.8492 14.325C30.7492 14.6551 30.6937 14.9971 30.6842 15.342C30.6842 16.222 31.1468 16.662 32.0722 16.662C33.3095 16.662 34.1388 15.8783 34.5602 14.311L42.8372 14.313ZM60.5161 19.826H53.4911L56.1852 9.82097C56.2865 9.48598 56.3424 9.13887 56.3512 8.78897C56.3512 7.91765 55.8878 7.48198 54.9612 7.48198C53.7138 7.48198 52.8805 8.26631 52.4612 9.83498L49.7772 19.827H42.7312L48.0101 0.126968H55.0491L53.7841 4.88397C55.2307 4.38875 56.7563 4.16499 58.2841 4.22397C61.6841 4.22397 63.3842 5.53897 63.3842 8.16898C63.3687 8.95145 63.2487 9.72833 63.0272 10.479L60.5161 19.826ZM84.3401 12.719C83.0502 17.5483 78.9825 19.963 72.1371 19.963C66.3372 19.963 63.4548 18.2353 63.4901 14.78C63.5091 14.0821 63.6152 13.3894 63.8062 12.718L64.1362 11.453C65.4282 6.63231 69.4975 4.22197 76.3441 4.22197C82.1088 4.22197 84.9911 5.9313 84.9911 9.34998C84.9806 10.061 84.8743 10.7673 84.6752 11.45L84.3401 12.719ZM75.5042 14.332L76.7041 9.86397C76.7959 9.53244 76.8466 9.19087 76.8551 8.84697C76.8551 7.96698 76.3925 7.52698 75.4671 7.52698C74.2298 7.52698 73.4048 8.30597 72.9922 9.86397L71.7921 14.332C71.6922 14.6621 71.6367 15.0041 71.6272 15.349C71.6272 16.229 72.0898 16.669 73.0152 16.669C74.2531 16.6656 75.0828 15.8866 75.5042 14.332ZM105.982 12.719C104.69 17.5483 100.621 19.963 93.7742 19.963C87.9742 19.963 85.0918 18.2353 85.1272 14.78C85.1461 14.0821 85.2522 13.3894 85.4432 12.7179L85.7731 11.453C87.0652 6.63231 91.1345 4.22197 97.9812 4.22197C103.746 4.22197 106.628 5.9313 106.628 9.34998C106.618 10.061 106.511 10.7673 106.312 11.45L105.982 12.719ZM97.1432 14.332L98.3432 9.86397C98.435 9.53244 98.4857 9.19087 98.4942 8.84697C98.4942 7.96698 98.0315 7.52698 97.1062 7.52698C95.8688 7.52698 95.0438 8.30597 94.6311 9.86397L93.4312 14.332C93.3311 14.6621 93.2757 15.0041 93.2662 15.349C93.2662 16.229 93.7288 16.669 94.6541 16.669C95.8915 16.6656 96.7211 15.8866 97.1432 14.332ZM112.485 19.832H105.446L110.725 0.131973H117.764L112.485 19.832Z"
    fill="white" />
</svg>